<svg xmlns="http://www.w3.org/2000/svg" xmlns:xlink="http://www.w3.org/1999/xlink" version="1.1" x="0px" y="0px" viewBox="0 0 100 125" enable-background="new 0 0 100 100" xml:space="preserve"><path d="M93,42h-1v-4h-2.162l-1.055,4h-7.08l-2.323-2H71v-1h-0.885H59v-1h-4.849H53.18H52v1H33.865h-0.227l-1.024,1h-1.299  l-1.189,1.481c-1.375,0.456-4.235,1.111-5.896,1.063c-0.598-0.018-1.627-1.287-2.354-1.529C21.151,40.773,7,40.923,7,40.923v10.894  l23.335-6.972c0,0,2.298,0.484,2.056,1.695c-0.242,1.21-1.878,6.197-1.878,6.197s-0.236,1.55,0.636,1.937  c0.871,0.387,2.836,0.872,2.836,0.872s1.271-0.053,1.127-1.457C35.006,53.072,35.424,51,36.241,49h6.895  C43.563,49,44,48.565,44,48.137v-0.549c2,4.448,4.129,10.894,11.008,14.204c2.678-3.486,4.487-5.146,4.487-5.146  S52.427,52,51.993,46h3.37h0.732h1.979c0,0,0.081-0.223,0.323-0.724C58.5,45.067,58.958,45,59.532,45H71.5l0,0h6l0,0h4l0,0H93V42z   M42.72,48H38v-2h5v1.087C43,47.332,42.964,48,42.72,48z"/><text x="0" y="115" fill="#000000" font-size="5px" font-weight="bold" font-family="'Helvetica Neue', Helvetica, Arial-Unicode, Arial, Sans-serif">Created by Evgen Chekrygin</text><text x="0" y="120" fill="#000000" font-size="5px" font-weight="bold" font-family="'Helvetica Neue', Helvetica, Arial-Unicode, Arial, Sans-serif">from the Noun Project</text></svg>