<svg xmlns="http://www.w3.org/2000/svg" xmlns:xlink="http://www.w3.org/1999/xlink" version="1.1" x="0px" y="0px" viewBox="0 0 100 125" style="enable-background:new 0 0 100 100;" xml:space="preserve"><rect x="41.68" y="43.39" width="1.08" height="0.29"/><rect x="38.5" y="42.21" width="1.99" height="0.31"/><rect x="38.7" y="42.72" width="1.55" height="0.58"/><path d="M32.43,51.09c0,0.27,0.22,0.49,0.49,0.49c0.27,0,0.49-0.22,0.49-0.49c0-0.27-0.22-0.49-0.49-0.49  C32.65,50.61,32.43,50.83,32.43,51.09z"/><polygon points="35.02,48.48 34.91,48.28 34.68,48.28 34.57,48.48 34.68,48.67 34.91,48.67 "/><path d="M38.81,53.36c-0.17-0.34-0.52-0.56-0.91-0.56c-0.45,0-0.85,0.3-0.98,0.74c-0.01,0.04-0.05,0.07-0.09,0.08l-0.64,0.06v1.57  l5.92-0.65v-1.48c-0.02,0-0.04,0.01-0.06,0.01l-3.14,0.3C38.87,53.42,38.83,53.4,38.81,53.36z"/><rect x="88.34" y="47.56" width="1.66" height="1.33"/><path d="M86.72,47.25c-0.06,0-0.12,0.05-0.12,0.12v1.72c0,0.06,0.05,0.12,0.12,0.12h1.3c0.06,0,0.12-0.05,0.12-0.12v-1.72  c0-0.06-0.05-0.12-0.12-0.12H86.72z"/><path d="M86.4,47.53H46.04L45.8,48.1v0.45h13.35c0.27,0,0.5,0.15,0.63,0.36H86.4V47.53z"/><polygon points="50.4,46.2 50.4,43.11 46.32,43.11 43.72,43.73 43.72,45.52 46.29,46.2 "/><path d="M38.4,43.69c-0.02,0.04-0.03,0.08-0.03,0.12v1.6c0,0.05,0.01,0.1,0.03,0.14c0.05,0.1,0.15,0.16,0.27,0.16h1.6  c0.11,0,0.21-0.06,0.27-0.16c0.02-0.03,0.03-0.07,0.03-0.1c0-0.01,0-0.02,0-0.04v-1.6c0-0.04-0.01-0.08-0.03-0.12  c-0.04-0.09-0.12-0.16-0.22-0.17c-0.02,0-0.03,0-0.05,0h-1.6c-0.02,0-0.04,0-0.06,0.01C38.52,43.54,38.44,43.6,38.4,43.69z"/><path d="M40.79,45.45c0,0,0,0.01,0,0.01c0,0.01,0,0.02,0,0.03c0,0,0,0,0,0.01h2.72v-1.75h-2.72c0,0,0,0,0,0c0,0.01,0,0.01,0,0.02  c0,0,0,0.01,0,0.01c0,0.01,0,0.02,0,0.03v1.6C40.79,45.43,40.79,45.44,40.79,45.45z"/><path d="M36.2,46.12v-0.41h-1.08v1.39h7.64v-1.39h-1.08v0.41c0,0.06-0.05,0.1-0.1,0.1H36.3C36.24,46.23,36.2,46.18,36.2,46.12z"/><path d="M38.17,43.78C38.17,43.78,38.17,43.78,38.17,43.78c0-0.02,0-0.02,0-0.03c0,0,0,0,0,0h-3.94v1.75h3.94c0,0,0,0,0-0.01  c0-0.01,0-0.02,0-0.03c0,0,0-0.01,0-0.01c0-0.01,0-0.02,0-0.04v-1.6C38.17,43.8,38.17,43.79,38.17,43.78z"/><polygon points="33.59,43.56 33.59,45.71 34.02,45.53 34.02,43.72 "/><rect x="32.66" y="43.56" width="0.21" height="2.09"/><rect x="33.08" y="43.38" width="0.3" height="2.41"/><rect x="27.87" y="43.38" width="0.27" height="2.41"/><rect x="28.35" y="43.56" width="0.14" height="2.09"/><rect x="28.71" y="43.38" width="3.75" height="2.38"/><path d="M31.26,48.75c0.11-0.06,0.23-0.09,0.36-0.09h1.67v-1.13h-2.04V48.75z"/><path d="M33.5,48.66h0.83c0.06,0,0.1,0.05,0.1,0.1c0,0.16,0.1,0.29,0.25,0.34v-0.22h-0.07c-0.04,0-0.07-0.02-0.09-0.05l-0.17-0.3  c-0.02-0.03-0.02-0.07,0-0.1l0.17-0.3c0.02-0.03,0.05-0.05,0.09-0.05h0.35c0.04,0,0.07,0.02,0.09,0.05l0.17,0.3  c0.02,0.03,0.02,0.07,0,0.1l-0.17,0.3c-0.02,0.03-0.05,0.05-0.09,0.05H34.9v0.23c0.15-0.04,0.26-0.18,0.26-0.35  c0-0.06,0.05-0.1,0.1-0.1h1.06c0.18,0,0.32,0.14,0.32,0.33c0,0.03,0.01,0.06,0.03,0.08c0.02,0.02,0.05,0.03,0.08,0.03h5.44  c0.07,0,0.12-0.05,0.12-0.12v-0.11c0-0.18,0.15-0.33,0.33-0.33h2.93v-0.47c0-0.01,0-0.03,0.01-0.04l0.21-0.51h-0.66  c-0.06,0-0.1-0.05-0.1-0.1v-0.12H33.5V48.66z M36.85,47.92c0-0.13,0.11-0.24,0.24-0.24h4.79c0.13,0,0.24,0.11,0.24,0.24v0.58  c0,0.13-0.11,0.24-0.24,0.24h-4.79c-0.13,0-0.24-0.11-0.24-0.24V47.92z"/><path d="M13.32,56.83l-0.12-7.99c0-0.18-0.15-0.32-0.33-0.32h-2.53c-0.18,0-0.33,0.14-0.33,0.32v8.4  C11.24,56.84,12.51,56.68,13.32,56.83z"/><path d="M22.14,48.3h-7.6c-0.56,0-1.01,0.45-1.01,1.01v0.01h9.04v-0.6C22.57,48.49,22.38,48.3,22.14,48.3z"/><rect x="25.35" y="49.3" width="1.94" height="2.16"/><path d="M13.52,56.44h0.67c0.21,0,0.39-0.17,0.39-0.39v-0.04c0-0.16,0.06-0.31,0.18-0.43c0.12-0.11,0.27-0.17,0.43-0.17l0.73,0.01  c0.13,0,0.25-0.06,0.33-0.17l0.22-0.31c0.14-0.2,0.37-0.31,0.61-0.31l3.07,0.06c0.15,0,0.29,0.05,0.41,0.14l2.33,1.72  c0.39,0.29,0.86,0.45,1.34,0.48l0.76,0.04c0.22,0.01,0.45,0.05,0.66,0.12l1.56,0.49c0.24,0.07,0.49,0.11,0.74,0.11h1.25  c0.29,0,0.53-0.23,0.55-0.52c0.12-1.77,0.33-2.81,0.69-3.37c0.07-0.11,0.19-0.19,0.32-0.2c0.14-0.01,0.27,0.03,0.36,0.13l0.56,0.56  c0.1,0.1,0.22,0.15,0.36,0.15h2.05c0.13,0,0.26-0.05,0.36-0.15l0.66-0.66c0.12-0.12,0.27-0.19,0.44-0.21l1.19-0.11  c0.17-0.49,0.64-0.82,1.16-0.82c0.44,0,0.84,0.23,1.06,0.61l3.07-0.29c0.06-0.01,0.11-0.01,0.17-0.02s0.11-0.02,0.16-0.04l3.89-1.13  c0.18-0.05,0.37-0.08,0.56-0.08h12.85v-2.37c0-0.28-0.23-0.51-0.51-0.51H42.66c-0.07,0-0.12,0.05-0.12,0.12v0.11  c0,0.18-0.15,0.33-0.33,0.33h-5.44c-0.09,0-0.17-0.03-0.23-0.1c-0.06-0.06-0.1-0.14-0.1-0.23c0-0.07-0.05-0.12-0.11-0.12h-0.97  c-0.04,0.23-0.23,0.42-0.46,0.46v0.47c0,0.36-0.21,0.67-0.54,0.81l-0.77,0.32c0.01,0.05,0.02,0.11,0.02,0.17  c0,0.38-0.31,0.7-0.7,0.7c-0.38,0-0.7-0.31-0.7-0.7c0-0.38,0.31-0.7,0.7-0.7c0.25,0,0.47,0.13,0.59,0.34l0.77-0.32  c0.25-0.1,0.41-0.35,0.41-0.62v-0.48c-0.23-0.05-0.4-0.23-0.45-0.45h-2.62c-0.07,0-0.15,0.01-0.21,0.04  c-0.07,0.03-0.13,0.07-0.18,0.12l-0.28,0.28c-0.14,0.14-0.34,0.22-0.54,0.22H27.5v1.76c0.6,0.44,0.96,1.14,0.96,1.88  c0,1.29-1.05,2.33-2.33,2.33c-1.29,0-2.33-1.05-2.33-2.33c0-0.91,0.52-1.73,1.34-2.11v-1.54H13.41L13.52,56.44z M31.26,52.97  c0-0.51,0.42-0.93,0.93-0.93h0.04c-0.04,0.13-0.07,0.26-0.07,0.39c-0.03,0.41,0.13,0.82,0.4,1.11c0.13,0.14,0.28,0.26,0.44,0.37  l0.1-0.14c-0.26-0.21-0.49-0.49-0.57-0.82c-0.08-0.3-0.01-0.64,0.15-0.9l-0.01-0.01h1.19c0.51,0,0.93,0.42,0.93,0.93v0.17  c0,0.51-0.42,0.93-0.93,0.93h-1.66c-0.51,0-0.93-0.42-0.93-0.93V52.97z"/></svg>