<svg xmlns="http://www.w3.org/2000/svg" xmlns:xlink="http://www.w3.org/1999/xlink" version="1.1" x="0px" y="0px" viewBox="0 0 100 125" style="enable-background:new 0 0 100 100;" xml:space="preserve"><g><path d="M93.1054688,34.2094727c0.0126953-0.0522461,0.0458984-0.1337891,0.0810547-0.2270508   c0.1240234-0.3276367,0.2192383-0.5966797,0.2192383-0.8295898c0-0.6738281-0.6694336-2.3232422-1.546875-2.3232422h-0.8095703   c0.0024414-0.0415039,0.003418-0.0830078,0.003418-0.1235352c0-0.7529297-0.8149414-1.4882813-1.2880859-1.4882813   c-0.3901367,0-2.8579102,1.2050781-2.8818359,1.2172852c-0.2250977,0.1123047-0.3833008,0.2680664-0.4873047,0.4296875h-0.1484375   c-0.1474609,0-0.2875977,0.0654297-0.3828125,0.1782227c-0.1396484,0.1665039-0.7416992,0.4921875-1.4995117,0.4921875h-1.9882813   c-0.1362305,0-0.2666016,0.0556641-0.3608398,0.1538086l-0.1347656,0.140625h-0.3989258   C81.4101563,31.6318359,81.222168,31.5,81.0117188,31.5H60.3056641c-0.1625977,0-0.3144531,0.0791016-0.4082031,0.2114258   l-0.1914063,0.2709961H59.328125l-0.0766602-0.1611328c-0.0825195-0.1748047-0.2583008-0.2861328-0.4516602-0.2861328h-2.3999023   c-1.0668945,0-2.1020508-0.5957031-2.1123047-0.6020508c-0.0771484-0.0449219-0.1767578-0.065918-0.2563477-0.0683594   l-11.1025391,0.0908203c-0.1508789-0.4277344-0.4853516-0.644043-0.9995117-0.644043   c-0.121582,0-12.4453125,0.0512695-12.6899414,0.0966797c-0.0605469,0.0112305-0.2514648,0.0766602-0.5273438,0.1806641   c-0.487793,0.184082-1.3037109,0.4921875-2.0966797,0.6977539c-0.8574219,0.2241211-1.6938477,0.2060547-2.0166016,0.1855469   c-0.3808594-0.3076172-1.5488281-1.2490234-1.8881836-1.5097656c-0.4492188-0.3452148-0.8339844-0.421875-1.2519531-0.4291992   c-0.2939453-0.2124023-0.4907227-0.2861328-0.5322266-0.300293c-0.0390625-0.0131836-0.0786133-0.0214844-0.1196289-0.0249023   c0,0-0.8623047-0.0727539-1.3359375-0.0727539c-0.1938477,0-0.3701172,0.1118164-0.4526367,0.2871094   c-0.2368164,0.5039063-0.2661133,1.6479492-0.2597656,2.3481445h-0.3466797c-0.5668945,0-0.8476563,0.1772461-1.1171875,0.4633789   c-0.2275391,0.2421875-1.972168,2.0751953-2.7182617,2.7958984c-0.8447266-0.0063477-1.4731445-0.1171875-1.8691406-0.3291016   c-0.6186523-0.3320313-1.1508789-0.3769531-1.5893555-0.3769531c-0.7226563,0-1.4057617,0.7231445-1.4057617,1.487793   c0,0.5668945,0.3510742,0.8310547,0.7578125,1.137207c0.1889648,0.1420898,0.4296875,0.3227539,0.7226563,0.5854492   c1.3510742,1.230957,1.855957,2.9082031,1.8979492,3.097168c-0.0200195,0.1591797-0.2890625,1.3520508-0.5883789,2.6054688   c-0.1635742,0.6845703-0.6206055,0.8369141-1.8847656,1.097168c-1.3237305,0.2724609-3.3789063,1.2797852-4.2641602,1.9648438   c-0.5102539,0.3945313-0.7021484,0.7905273-0.5703125,1.1772461c0.1977539,0.5791016,0.9638672,0.6240234,1.1938477,0.6240234   c0.5957031,0,1.0283203-0.0146484,1.5644531-0.0327148C9.3847656,48.0390625,10.5410156,48,13.1040039,48   c1.1606445,0,2.152832,0.4135742,2.949707,1.2294922c1.375,1.4082031,1.9560547,3.7861328,1.9262695,5.5395508   c-0.6499023,2.6875-2.8193359,8.4692383-3.7114258,10.1181641c-1.1142578,2.059082-1.715332,3.5576172-1.9482422,4.8579102   c-0.2880859,1.6074219,0.1191406,4.2231445,0.1235352,4.2495117c0.050293,0.3208008,0.1777344,0.5517578,0.2885742,0.6992188   c0.1035156,2.8300781,2.4682617,3.1870117,3.2041016,3.2285156c0.6445313,0.0371094,11.6484375,0.0834961,13.2988281,0.0834961   c1.6499023,0,2.9604492-0.2866211,4.0595703-0.5551758c1.3168945-0.3217773,1.7817383-1.5532227,1.7817383-1.8388672   c0-0.1333008,0-0.1689453-0.8354492-2.3842773l-0.2421875-0.6455078c-0.1318359-0.3637695-0.1699219-0.6386719-0.1162109-0.8413086   c0.1088867-0.4067383,2.3959961-11.9272461,2.4189453-12.043457c0.2749023-1.3818359,1.0019531-1.9165039,1.5639648-2.121582   c0.6767578-0.2480469,1.5107422,0.1005859,1.6044922,0.1411133c0.3774414,0.1650391,0.7680664,0.3359375,1.2119141,0.3359375   c0.1259766,0,1.3994141-0.0151367,2.9760742-0.0341797c2.5551758-0.0307617,5.9091797-0.0712891,6.4477539-0.0712891   c0.4458008,0,0.7773438-0.1411133,0.9858398-0.4189453c0.362793-0.484375,0.1987305-1.1889648,0-1.8691406   c-0.2568359-0.8764648-0.2744141-1.3691406-0.2041016-2.7275391c0.0688477-1.328125,0.8408203-3.4345703,2.7900391-5.0009766   c2.1259766-1.7075195,4.65625-2.065918,6.4047852-2.065918h28.7055664c1.3520508,0,2.4038086-1.6445313,2.4140625-1.6616211   c0.0546875-0.0888672,0.1826172-0.296875,1.1166992-2.9423828c0.1220703-0.3461914,1.1928711-3.4008789,1.1928711-4.0844727   c0-0.2539063-0.1166992-1.0761719-0.2817383-2.2099609C93.1674805,34.5327148,93.1020508,34.2094727,93.1054688,34.2094727z    M53.9091797,31.8657227c0.3525391,0.1850586,1.3798828,0.6694336,2.4907227,0.6694336h2.0834961l0.0766602,0.1611328   c0.0825195,0.1748047,0.2583008,0.2861328,0.4516602,0.2861328h0.953125c0.1625977,0,0.3144531-0.0791016,0.4082031-0.2114258   L60.5644531,32.5h20.0947266c0.0717773,0.1977539,0.2597656,0.3295898,0.4702148,0.3295898h0.9648438   c0.1362305,0,0.2666016-0.0556641,0.3608398-0.1538086l0.1347656-0.140625h1.7749023   c0.8745117,0,1.6552734-0.3144531,2.0834961-0.6704102h0.28125c0.1208496,0,0.2288818-0.039856,0.3148804-0.1049805h3.1965332   c0.0739746,0.041626,0.1547241,0.0698242,0.2415161,0.0698242L91.7714844,31.8125   c0.1958618,0.1087036,0.5641479,0.8197632,0.6224365,1.2319336H57.8334961c-2.3916016,0-3.6044922,0.2373047-3.6044922,0.7114258   c0,0.7319336,0.1669922,1.4199219,0.484375,1.9907227c0.2318726,0.4174805,0.616333,0.8737793,1.2250977,1.2119141h-3.4318848   c0.0275879-0.4443359,0.0769043-1.4161377,0.0769043-2.7084961c0-1.0720825-0.0656738-1.8804932-0.1203003-2.3724365   L53.9091797,31.8657227z M42.7675781,31.9569702l9.192749-0.0753174c0.0536499,0.4725952,0.1231689,1.2908325,0.1231689,2.3683472   c0,1.3079834-0.0509033,2.2865601-0.0774536,2.7084961h-7.3395386c-1.8989258,0-1.8989258-0.909668-1.8989258-1.2084961V31.9569702   z M44.6665039,37.4584961h13.4375h24.84375l0.2997437,2.2314453L63.4206543,39.604187l-14.4437866-0.0625l-3.6109619-0.015625   c-0.2962036-0.0046997-0.6123047,0.0050659-0.8922119-0.0115967c-0.2657471-0.0027466-0.5092163-0.1141357-0.7323608-0.2536621   c-0.4321899-0.319397-0.741272-0.8231201-0.9485474-1.3601685c-0.1807861-0.4629517-0.2993774-0.9542236-0.378418-1.4509277   C42.6582031,36.9949951,43.269043,37.4584961,44.6665039,37.4584961z M18.4116211,32.7705078h0.8588867   c0.1362305,0,0.2661133-0.0556641,0.3608398-0.1538086c0.0267944-0.0279541,0.0413208-0.0634155,0.06073-0.0961914H22.09375   c0.1381836,0,0.25-0.1118164,0.25-0.25v-0.0615234h1.5756226c0.0995483,0.0803223,0.171814,0.1386719,0.171936,0.1386719   c0.074707,0.0605469,0.1650391,0.0981445,0.2602539,0.1083984c0.0498047,0.0048828,1.2416992,0.1298828,2.5151367-0.2016602   c0.8442383-0.2192383,1.6918945-0.5390625,2.1982422-0.7299805c0.1835938-0.0693359,0.315918-0.1206055,0.309082-0.1269531   c0.411499-0.0255737,11.1343994-0.0825195,12.4599609-0.0857544l0.0135498,3.1234131   c-0.0372314,1.1835938,0.0604248,2.4838867,0.5395508,3.6292114c0.2312622,0.5754395,0.5686646,1.1463623,1.1139526,1.5431519   c0.2816162,0.1783447,0.6095581,0.317627,0.9523926,0.3204956c0.3203735,0.0150146,0.6072388,0.0019531,0.9124756,0.0042725   l3.6109619-0.015625l14.4437866-0.0625L83.25,39.7683105v4.1286621l-0.1303711,0.2490234H56.5   c-0.0037231,0-0.0058594,0.0037842-0.0095825,0.0039673c-0.2528687,0.0002441-2.1831055,0.0202637-5.1036987,0.0599976   c-0.0040894,0.000061-0.0064087,0.0042725-0.010437,0.0045166c-0.0054932-0.0003662-0.0110474-0.0045166-0.0164185-0.0045166   c-0.4038086,0-0.8217773,0-1.2597656,0.0058594v-0.3657227c0-0.1318359-0.1020508-0.2407227-0.2333984-0.2495117   c-0.3007813-0.0200195-0.6416016-0.0400391-0.9926758-0.0600586c-0.0007324-0.0001221-0.0012817,0.0007324-0.0020142,0.0006104   l0.000061-0.0006104c-2.0136719-0.0996094-4.5693359-0.0913086-4.5932617-0.090332   c-0.1376953,0.0004883-0.2490234,0.1123047-0.2490234,0.25v0.5824585l-4.8747559,0.0568237l1.8617554-8.6322632   l-2.3635864,8.6380615l-1.192749,0.013916l1.8595581-8.649231l-2.3612671,8.6550903l-1.2025146,0.0139771l1.8737793-8.6690674   l-2.3756714,8.6749268l-1.1928711,0.013916l1.87854-8.6888428l-2.3804932,8.6947021l-1.1980591,0.013916L34.25,35.7099609   l-2.3800659,8.7143555l-1.2127686,0.0141602l1.8928223-8.7285156l-2.385437,8.7342529l-1.2016602,0.0139771l1.8970947-8.74823   l-2.3908691,8.7539673l-1.1970825,0.0139771l2.7668457-12.3170166l-1.5751953,5.9403687   c0.324585-1.5967407,0.1518555-3.4816895-0.5736694-4.1212769C27.7299805,33.8299561,27.5300293,33.75,27.3099976,33.75   c-0.25,0-0.6099854,0-1.0499878,0.0100098c-0.5,0-1.0900269,0.0099487-1.7000122,0.0199585   c-0.5599976,0-1.1400146,0.0100098-1.6900024,0.0200195c-0.6199951,0-1.2199707,0.0100098-1.710022,0.0200195   c-0.5999756,0.0099487-1.0499878,0.0099487-1.2099609,0.0099487c-0.1400146,0-0.3200073,0.0300293-0.5100098,0.1000366   c-0.7200317,0.2299805-1.6599731,0.8999634-1.8900146,2.0200195c-0.2000122,0.9299927,0.1500244,1.8399658,0.7999878,2.4400024   v0.0099487l0.000061,0.000061c0.3500366,0.3200073,0.789978,0.5599365,1.289978,0.6799316   c0.0700073,0.0200195,0.1400146,0.0300293,0.2299805,0.0500488c0.4000244,0.0799561,0.9700317,0.1900024,1.6199951,0.3099976   C22,39.539978,22.5499878,39.6400146,23.0999756,39.7399902h0.000061c0.5599976,0.0999756,1.1199341,0.1900024,1.6199341,0.2799683   h0.000061c0.7000122,0.1200562,1.289978,0.2200317,1.6299438,0.2700195h0.000061   c0.1400146,0.0300293,0.2399902,0.039978,0.289978,0.0499878c0.4106445,0.0698853,1.1035767,0.0092773,1.5855713-1.3408813   l-1.4544067,5.4846191l-1.2092896,0.0140991l0.788147-4.2078247l-1.2637329,4.2133789l-1.2266235,0.0142822l0.8603516-4.4976807   l-1.340332,4.5032959l-1.2125244,0.0140991l0.9328613-4.7973633l-1.4168091,4.8030396l-1.2084961,0.0140381l1.0152588-5.1170654   l-1.5030518,5.1227417l-1.2055664,0.0140381l1.088623-5.4467773l-1.5796509,5.4525146l-1.2112427,0.0140991l1.2709351-6.1965942   l-1.7664185,6.2023926l-1.0371094,0.012085l2.6491699-11.8209229   C18.2451172,32.7782593,18.3068848,32.7705078,18.4116211,32.7705078z M11.862793,36.7919922   c-0.3232422-0.2895508-0.5859375-0.4873047-0.7919922-0.6425781c-0.1494141-0.1123047-0.3354492-0.2524414-0.3588867-0.3378906   c0-0.2260742,0.2456055-0.487793,0.4057617-0.487793c0.3925781,0,0.7163086,0.0429688,1.1166992,0.2578125   c0.5140381,0.2761841,1.2337646,0.4135742,2.1693726,0.4373779c-0.1782837,0.7553711-0.5064087,2.1511841-0.7618408,3.2661743   C13.2956543,38.5213623,12.7307129,37.5829468,11.862793,36.7919922z M12.887085,44.5058594   c0.2677612-0.2473145,0.4768677-0.5730591,0.5875244-1.0366211c0.4072266-1.706543,0.6137695-2.6479492,0.6137695-2.7988281   c0-0.0834351-0.0392456-0.2816162-0.1229858-0.5523071c0.2680664-1.1954956,0.75-3.2431641,0.9561768-4.1164551   c0.0714722-0.0219116,0.1392822-0.0541992,0.1951294-0.1061401c0.6557617-0.6088867,2.659668-2.7143555,2.90625-2.9760742   c0.057312-0.0608521,0.0942383-0.0979614,0.1500244-0.1202393l-3.1325684,11.821228l-2.1976318,0.0255737L12.887085,44.5058594z    M53.0517578,47.1513672c-2.2045898,1.7709961-3.0795898,4.1206055-3.1630859,5.7285156   c-0.0693359,1.347168-0.0668945,2.0014648,0.2431641,3.0600586c0.2197266,0.7509766,0.1835938,0.9438477,0.1694336,0.9790039   c-0.0004883,0-0.0458984,0.0283203-0.1953125,0.0283203c-0.5395508,0-3.8999023,0.0405273-6.4599609,0.0712891   c-1.5703125,0.019043-2.8383789,0.0341797-2.9638672,0.0341797c-0.21875,0-0.4526367-0.0952148-0.8115234-0.2519531   c-0.2119141-0.0932617-1.3242188-0.5371094-2.3476563-0.1645508c-0.6572266,0.2397461-1.8173828,0.9311523-2.2016602,2.8666992   c-0.5029297,2.534668-2.3100586,11.6103516-2.4042969,11.9799805c-0.1088867,0.4067383-0.0620117,0.8779297,0.1425781,1.440918   l0.2460938,0.6567383c0.2119141,0.5625,0.6279297,1.6655273,0.7504883,2.0297852   c-0.0805664,0.1938477-0.3525391,0.7109375-0.9985352,0.8686523c-1.0424805,0.2548828-2.2836914,0.5268555-3.8222656,0.5268555   c-1.777832,0-12.6430664-0.0473633-13.2421875-0.081543C15.1474609,76.8764648,13.7290039,76.4980469,13.7290039,74.5   c0-0.1362305-0.0717773-0.28125-0.1699219-0.3754883c-0.0039063-0.0039063-0.0976563-0.0957031-0.1279297-0.2861328   c-0.1079102-0.6831055-0.3408203-2.7192383-0.1264648-3.9169922c0.2133789-1.190918,0.7817383-2.5966797,1.84375-4.5585938   c0.9996338-1.8485107,3.0841675-7.5142212,3.760498-10.1923828l0.5710449,0.109375   c0.1323242,0.0263672,0.2573242-0.0566406,0.2890625-0.1845703c0.0205078-0.0805664,2.0371094-8.0839844,2.2519531-8.8051758   c0.1972656-0.6625977,0.7070313-0.6962891,0.8071289-0.6962891h2.203125c0.1113281,0,0.1787109,0.0058594,0.21875,0.0117188   v2.5004883c0,0.730957,0.9677734,1.003418,1.578125,1.003418h7.2783203   c0.0854492,0.3608398,0.1435547,1.4702148,0.1445313,1.7924805c-0.0546875,0.4936523-3.9455566,21.675354-4.1523438,22.8154297   c-0.2198486,1.2120361-0.7837524,1.5070801-0.8140869,1.5229492c-0.0513916-0.0026245-0.1016846-0.003418-0.1548462-0.008606   l-2.1973877-0.0697632c-1.4649658-0.039856-2.9298706-0.0378418-4.3948364-0.0574341   c-1.4649658,0.0209351-2.9298706,0.0171509-4.3948364,0.0582886l-2.1973877,0.0695801   C15.2371216,75.2825928,14.5182495,75.053894,13.8125,74.875c0.673584,0.2843018,1.3666992,0.5653687,2.1327515,0.6010132   l2.1973877,0.0695801c1.4649658,0.0411377,2.9298706,0.0373535,4.3948364,0.0582886   c1.4649658-0.0195923,2.9298706-0.0175781,4.3948364-0.0574341l2.1973877-0.0697632   c0.1606445,0.0023193,0.3400879-0.0148926,0.5150757-0.0551758l0.0056763,0.0020142   c0.0014038-0.0008545,0.0065918-0.00354,0.0085449-0.0045776c0.2038574-0.0487061,0.4006348-0.1311035,0.552124-0.2684326   C30.5102539,74.9145508,30.729126,74.6137695,30.9375,74.3125c-0.2495117,0.267334-0.505127,0.5368042-0.8028564,0.7297974   c-0.0239258,0.0164185-0.0491333,0.0245361-0.0733643,0.0386353c0.1897583-0.2335205,0.3999023-0.6195068,0.5275879-1.2669678   C30.6308594,73.6035156,34.75,51.2006836,34.75,50.921875c0-2.3125-0.3505859-2.3125-0.5-2.3125h-7.421875   c-0.4501953,0-1.078125-0.1914063-1.078125-0.503418v-2.559082c0-0.453125-0.4853516-0.453125-0.71875-0.453125h-2.203125   c-0.4487305,0-1.0546875,0.2758789-1.2866211,1.0537109c-0.199707,0.6699219-1.8598633,7.2504883-2.1992188,8.5966797   l-0.3668823-0.0701904c0.0068359-1.9525757-0.6585083-4.5578003-2.2063599-6.1427002   C15.7773438,47.5151367,14.5444336,47,13.1040039,47c-2.5800781,0-3.7456055,0.0395508-4.5966797,0.0678711   c-0.5327148,0.0185547-0.9633789,0.0566406-1.5556641,0.0317383c0.0043945-0.0029297,0.0087891-0.0063477,0.0131836-0.0097656   c0.7836914-0.6069336,2.6777344-1.5341797,3.8540039-1.7763672c0.5117188-0.1052856,1.006897-0.2137451,1.4367676-0.4033203   c0.0020752,0.0493774,0.0134277,0.0979004,0.0437012,0.1386719c0.046875,0.0634766,0.121582,0.1010742,0.2006836,0.1010742   c0.0009766,0,0.0019531,0,0.0029297,0l13.4703369-0.1568604c0.0039673,0.4235229,0.1659546,1.0501099,0.3208618,1.0501099   c0.243103,0,0.2196045,0.439209,0.2196045,1.121521c0,0.682373,0.8862915,0.9412231,1.6313477,0.9412231   c0.7451172,0,10.1411743-0.1098633,10.8313599-0.1098633c0.6902466,0,1.1765137-0.4940796,1.1765137-1.0430908   s-0.3843384-1.1137695-1.2470703-1.1137695s-6.9882202,0-7.6313477,0c-0.6431885,0-0.7059326-0.5881958-0.7059326-0.5881958   c0-0.1004639-2.0536499-0.2241211-3.4154053-0.2716675l17.1295166-0.1995239   c0.1370239-0.0014648,0.2455444-0.1134644,0.2459106-0.25h0.0011597v-0.5795898   c0.619873,0,2.2890625,0.0075684,3.8060303,0.0673218C48.1503296,44.3048706,48.0400391,44.6403809,48.0400391,45   c0,1.0200195,0.8300781,1.8500977,1.8500977,1.8500977S51.7402344,46.0200195,51.7402344,45   c0-0.1032715-0.0106201-0.1998901-0.026123-0.2943115c2.7520752-0.0370483,4.5646362-0.0557861,4.7858887-0.0557861   c0.5761719,0,1.2946777,0.1171875,2.019043,0.305481C56.8222656,45.1544189,54.8193359,45.730957,53.0517578,47.1513672z    M91.3754883,40.9277344c-0.8139648,2.3071289-0.9926758,2.6933594-1.0249023,2.7509766   c-0.1879883,0.3041992-0.9384766,1.1860352-1.5625,1.1860352H60.0825195c-0.0657959,0-0.1400146,0.0047607-0.2077637,0.0057373   c-0.2095947-0.0807495-0.416748-0.1553955-0.6343994-0.2244873h24.0306396c0.0932617,0,0.1782227-0.0517578,0.2216797-0.1342773   l0.2290039-0.4375C83.7402344,44.0385742,83.75,43.9990234,83.75,43.9584961l-0.0023804-4.1923218l8.0367432-0.03479   C91.6625366,40.098877,91.5292358,40.4919434,91.3754883,40.9277344z M91.7858887,39.7268677l-8.0383301-0.03479V39.675293   l-0.3330078-2.5c-0.005127-0.0383301-0.03125-0.0651855-0.0513916-0.0957031   c-0.0109863-0.0168457-0.0127563-0.0372925-0.0274048-0.0510254c-0.0450439-0.0424194-0.1032104-0.0700684-0.1692505-0.0700684   h-25.0625c-1.4238281,0-2.4174805-0.4892578-2.9536133-1.4545898c-0.2597656-0.4677734-0.4082031-1.0556641-0.4204102-1.6689453   c0.3452148-0.1630859,1.921875-0.2905273,3.1035156-0.2905273h34.4494019   c-0.0112305,0.0298462-0.0227661,0.0606689-0.0314331,0.0834961c-0.0869141,0.2299805-0.1396484,0.3686523-0.1396484,0.5131836   c0,0.074707,0.0146484,0.1831055,0.1289063,0.9692383c0.0947266,0.6513672,0.2709961,1.8647461,0.2709961,2.0644531   C92.507019,37.3602905,92.2688599,38.2695313,91.7858887,39.7268677z"/><path d="M15.666687,73.895813c0.75-0.083313,3.520813-0.5,6.416626-0.333313c2.895874,0.166626,5.291687,0.458313,5.9375,0.5625   c0.645874,0.104126,1.267395-0.1049805,1.416687-0.75c0.4841919-2.0917358,3.3631592-19.4523926,3.7657471-21.8841553   c0.0251465-0.1519775-0.0905762-0.2860718-0.2445068-0.2901001l-10.7404175-0.2789917   c-0.1160278-0.0029907-0.2174072,0.0662231-0.2488403,0.1779785c-0.3082275,1.0947876-1.9520264,6.8755493-3.5111694,11.2335815   c-1.729126,4.833313-3.604126,8.458313-3.604126,10.104187C14.854187,73.520813,14.916687,73.979126,15.666687,73.895813z"/><path d="M43.7597656,47.5097656c-0.3232422,0-0.6162109,0.0102539-0.8813477,0.0205078   c-0.2219238,0.0101318-0.4432983,0.0303955-0.6605225,0.0526123l-0.0001221-0.0008545   c-2.5704346,0.3328857-3.7507324,1.5332031-3.8318481,1.6185913c-0.000061,0.000061-0.0001221,0-0.0001831,0.000061   c-0.0001831,0.0001831-0.0020142,0.0020752-0.0022583,0.0023193c-0.0007935,0.0007935-0.0055542,0.0054321-0.0060425,0.0059814   l-0.0087891,0.0093994c-0.0132446,0.0132446-0.034729,0.0361938-0.0706177,0.0756836l-0.0094604,0.0101318l0.0001221,0.0006104   c-0.2846069,0.3151245-1.1187744,1.361145-1.1187744,2.8250732c0,1.8999023,1.2431641,4.1323242,3.5527344,4.5273438   c0.2338867,0.0356445,0.7099609,0.0473633,1.3007813,0.0473633c0.59375,0,1.3037109-0.012207,2.0019531-0.0234375   c0.6347656-0.0107422,1.2456055-0.0209961,1.7148438-0.0209961l0.4570313,0.0009766   c1.2954102,0.0024414,2.159668,0.0083008,2.6796875-0.3789063c0.6889648-0.4995117,0.7631836-0.9790039,0.7631836-1.1621094   l0.0004883-0.0698242c0.015625-1.5620117-0.0488281-4.3134766-0.6557617-5.1938477   C48.1318359,48.6376953,46.9077148,47.5097656,43.7597656,47.5097656z M49.1401367,55.1201172   c0,0.1708984-0.1464844,0.4599609-0.5595703,0.7592773c-0.3886719,0.2895508-1.2299805,0.2851563-2.3813477,0.2817383   l-0.4589844-0.0009766c-0.4716797,0-1.0854492,0.0102539-1.7231445,0.0209961   c-1.3081055,0.0214844-2.7919922,0.046875-3.215332-0.0175781c-2.2817383-0.3901367-3.1318359-2.6811523-3.1318359-4.0336914   c0-0.9456177,0.4136353-1.7109375,0.7253418-2.1536865c0.0254517,0.2139282,0.0508423,0.4686279,0.0651855,0.7850342   c0.0527344,1.1777344,0.0947266,2.1083984,0.6044922,3.2685547c0.4907227,1.1157227,1.5541992,2.0288086,2.4736328,2.1245117   c0.0141602,0.0014648,0.0283203,0.0024414,0.0424805,0.0024414c0.1259766,0,0.2358398-0.0610352,0.2993164-0.168457   C42.0766602,55.6572266,41.7148438,55,41.5585938,54.7749023c-0.4052734-0.5839844-0.6025391-2.2114258-0.5888672-3.1611328   c0.0234375-1.5644531,0.5810547-3.1337891,0.7514648-3.3422852c0.0300903-0.0354614,0.145813-0.1248779,0.5628662-0.1936035   c0.1935425-0.0192261,0.4050903-0.0384521,0.6153564-0.0480957c0.2568359-0.0097656,0.5439453-0.0200195,0.8603516-0.0200195   c3.0649414,0,4.0927734,1.1015625,4.8144531,2.1323242c0.3798828,0.5507813,0.5917969,2.3837891,0.5664063,4.9033203   L49.1401367,55.1201172z"/><path d="M49.8646851,47.0117798c-0.7179565,0-1.2999878,0.5819702-1.2999878,1.2999878   c0,0.7179565,0.5820313,1.2999878,1.2999878,1.2999878c0.7180176,0,1.3000488-0.5820313,1.3000488-1.2999878   C51.1647339,47.59375,50.5827026,47.0117798,49.8646851,47.0117798z"/><path d="M35.8666382,54.7210693c-0.5999146,0-1.0862427,0.4863281-1.0862427,1.0863037   c0,0.5999146,0.4863281,1.0862427,1.0862427,1.0862427c0.5999756,0,1.0863037-0.4863281,1.0863037-1.0862427   C36.9529419,55.2073975,36.4666138,54.7210693,35.8666382,54.7210693z"/></g></svg>