<svg xmlns="http://www.w3.org/2000/svg" xmlns:xlink="http://www.w3.org/1999/xlink" xml:space="preserve" version="1.1" style="shape-rendering:geometricPrecision;text-rendering:geometricPrecision;image-rendering:optimizeQuality;" viewBox="0 0 317 110" x="0px" y="0px" fill-rule="evenodd" clip-rule="evenodd"><defs><style type="text/css">
   
    .fil0 {fill:black}
   
  </style></defs><g><path class="fil0" d="M167 15l0 12c0,2 -2,2 -2,0l0 -12c0,-1 2,-1 2,0zm148 1l-29 0c-1,0 -3,1 -3,2l0 0 -42 1 -3 4 45 0 0 0c0,1 2,3 3,3l29 0c1,0 2,-2 2,-3l0 -5c0,-1 -1,-2 -2,-2zm-84 -12l0 -4 -3 0 -12 19 0 6 21 0 3 -6 -9 0 0 -15zm-12 15l9 -15 1 0 0 15 -10 0zm-4 10l0 -16c0,-1 -2,0 -2,0l0 16c0,1 2,1 2,0zm-2 2l0 -19c0,-2 -5,-2 -5,0l0 19c0,1 5,2 5,0zm-5 0l0 -19c0,-2 -5,-2 -5,0l0 19c0,1 5,2 5,0zm-5 0l0 -19c0,-2 -5,-2 -5,0l0 19c0,1 5,2 5,0zm-5 0l0 -19c0,-2 -5,-2 -5,0l0 19c0,1 5,2 5,0zm-5 0l0 -19c0,-2 -5,-2 -5,0l0 19c0,1 5,2 5,0zm-5 0l0 -19c0,-2 -5,-2 -5,0l0 19c0,1 5,2 5,0zm-5 0l0 -19c0,-2 -5,-2 -5,0l0 19c0,1 5,2 5,0zm-5 0l0 -19c0,-2 -5,-2 -5,0l0 19c0,1 5,2 5,0zm-5 0l0 -19c0,-2 -5,-2 -5,0l0 19c0,1 5,2 5,0zm-20 -3l-42 0c-1,0 -1,2 0,2l42 0c1,0 1,-2 0,-2zm0 -6l-40 0 -2 6 42 0 0 -6zm-75 9l5 12 16 8 30 0 22 -9 2 -9 0 -3 -75 1zm72 -25l1 6 -49 0c-4,0 -4,-6 0,-6l1 0 47 0zm-51 38l2 -1 0 -2 2 -3c1,2 2,4 3,6l1 4 1 -5 -1 -5 -8 0 0 6zm31 8l16 36 21 -9 -16 -36 -21 9zm-31 -2l0 -12 26 0 5 11 -1 1 -30 0zm-2 2l-12 29 -15 -7 12 -29 15 7zm-96 -31l-1 15 57 0 0 0 19 -7 33 0 4 -8 40 0 0 -4 2 -3 -2 -12 -67 0 -7 12 -5 0 -4 8 -69 -1zm-1 17l0 3 1 15 51 -18 -52 0zm156 -26l7 0c1,0 1,1 1,2l0 15c0,1 0,1 -1,1l-8 0c0,0 -1,0 -1,-1l0 -8 0 0 0 -4 2 -3 0 -2z"/></g></svg>