<svg xmlns="http://www.w3.org/2000/svg" viewBox="0 0 100 125" x="0px" y="0px"><title>uzi</title><path d="M51.832,37.053l3.116-.126,3.4,3.349,1.3-.992-.432-.484A7.565,7.565,0,0,1,57.3,33.764h0l-5.466-.017Z"/><rect x="30.931" y="19.52" width="2.284" height="1.115"/><polygon points="81.63 16.427 81.63 26.336 85.794 26.336 85.794 24.648 95 24.648 95 18.999 85.794 18.999 85.794 16.427 81.63 16.427"/><rect x="39.148" y="66.732" width="11.606" height="27.229"/><path d="M80.514,27.452H14.861l7.359,7.374h6.7v-.009H30s3.848,1.511,3.513,5.078S30,50.329,30,54.346s.444,11.271,5.243,11.271H50.753V43.661H66.382a3.229,3.229,0,0,0,3.108-2.353l1.579-6.144a3.47,3.47,0,0,1,3.34-2.527h1.015l.289-2.663h4.8Zm-12.291,9.6L67.342,40.7a1,1,0,0,1-.959.725H51.588c-.6,0-.835-.553-.872-1.153l.037-7.644H61.509l3.382.005A3.469,3.469,0,0,1,68.223,37.053Z"/><polygon points="77.109 6.038 71.763 11.395 20.93 11.395 20.93 6.038 13.689 6.038 10.354 9.386 10.354 13.838 5 13.838 5 26.336 10.354 26.336 13.608 26.336 80.514 26.336 80.514 16.427 80.514 6.038 77.109 6.038"/></svg>